<svg width="129" height="55" viewBox="0 0 129 55" fill="none" xmlns="http://www.w3.org/2000/svg">
<path fill-rule="evenodd" clip-rule="evenodd" d="M55.9153 25.124H60.8415C69.0999 25.124 75.8178 31.8131 75.8178 40.0348C75.8178 48.2587 69.0999 54.949 60.8415 54.949H55.9153C47.6581 54.949 40.9402 48.2598 40.9391 40.037V2.52397C40.9391 1.14789 42.0626 0.0283203 43.4448 0.0283203C44.827 0.0283203 45.9516 1.14789 45.9516 2.52397V40.0348C45.9516 40.041 45.9516 40.0476 45.9514 40.054C45.9512 40.059 45.951 40.0638 45.9505 40.0685C45.9701 45.5229 50.44 49.9598 55.9153 49.9598H60.8415C66.3355 49.9598 70.8053 45.5066 70.8053 40.0337C70.8053 34.5642 66.3355 30.1131 60.8415 30.1131H55.9153C54.5342 30.1131 53.4097 28.9924 53.4097 27.6153C53.4097 26.2414 54.5331 25.124 55.9153 25.124ZM124.421 29.5642C121.632 26.7566 117.921 25.1827 113.97 25.1327C113.907 25.1273 113.844 25.1229 113.778 25.1229H108.848C100.592 25.1229 93.8753 31.8121 93.8753 40.0338C93.8753 48.2577 100.592 54.9479 108.848 54.9479H117.546C118.928 54.9479 120.052 53.8295 120.052 52.4534C120.052 51.0784 118.928 49.9599 117.546 49.9599H108.848C103.355 49.9599 98.8867 45.5066 98.8867 40.0338C98.8867 34.5632 103.355 30.1132 108.848 30.1132H113.631L113.66 30.1153L113.69 30.1171C113.719 30.1189 113.748 30.1208 113.778 30.1208C118.279 30.1208 122.292 33.2284 123.422 37.549H108.848C107.468 37.549 106.345 38.6675 106.345 40.0425C106.345 41.4186 107.467 42.5392 108.848 42.5392H126.246C127.627 42.5392 128.751 41.4197 128.751 40.0425C128.752 36.0979 127.213 32.3773 124.421 29.5642ZM19.9815 25.1239H15.0553C6.79694 25.1239 0.0791016 31.813 0.0791016 40.0348C0.0791016 48.2587 6.79694 54.9489 15.0553 54.9489H19.9815C28.2399 54.9489 34.9577 48.2587 34.9577 40.0348C34.9588 31.813 28.2399 25.1239 19.9815 25.1239ZM19.9817 49.9609H15.0555C9.56046 49.9609 5.08955 45.5077 5.08955 40.0348C5.08955 34.5642 9.56046 30.1142 15.0555 30.1142H19.9817C25.4767 30.1142 29.9476 34.5653 29.9476 40.0348C29.9476 45.5077 25.4767 49.9609 19.9817 49.9609ZM82.47 27.6229C82.47 26.249 83.5935 25.1316 84.9746 25.1316C86.3557 25.1316 87.4792 26.249 87.4792 27.6229V52.4544C87.4792 53.8305 86.3557 54.949 84.9746 54.949C83.5935 54.949 82.47 53.8294 82.47 52.4544V27.6229Z" fill="url(#paint0_linear)"/>
<defs>
<linearGradient id="paint0_linear" x1="38.6811" y1="45.3379" x2="122.318" y2="45.3379" gradientUnits="userSpaceOnUse">
<stop stop-color="#6436FB"/>
<stop offset="0.4665" stop-color="#6738F9"/>
<stop offset="0.6001" stop-color="#713FF4"/>
<stop offset="0.7224" stop-color="#824AEC"/>
<stop offset="0.8372" stop-color="#9A5AE0"/>
<stop offset="0.9471" stop-color="#B86ED1"/>
<stop offset="1" stop-color="#B96FD1"/>
</linearGradient>
</defs>
</svg>
