<svg width="256" height="256" viewBox="0 0 256 256" fill="none" xmlns="http://www.w3.org/2000/svg">
<circle cx="128" cy="128" r="128" fill="#713FFA"/>
<path fill-rule="evenodd" clip-rule="evenodd" d="M139.016 61H116.984C80.0466 61 50 91.0215 50 127.922C50 164.832 80.0466 194.858 116.984 194.858H139.016C175.953 194.858 206 164.832 206 127.922C206.005 91.0215 175.953 61 139.016 61ZM139.018 172.472H116.984C92.4068 172.472 72.41 152.485 72.41 127.922C72.41 103.369 92.4068 83.3971 116.984 83.3971H139.018C163.595 83.3971 183.591 103.374 183.591 127.922C183.591 152.485 163.595 172.472 139.018 172.472Z" fill="white"/>
</svg>
